<svg xmlns="http://www.w3.org/2000/svg" viewBox="0 0 1024 1024" width="1024" height="1024">
  <defs>
    <linearGradient id="bgGrad" x1="0%" y1="0%" x2="100%" y2="100%">
      <stop offset="0%" style="stop-color:#1A237E"/>
      <stop offset="100%" style="stop-color:#5C6BC0"/>
    </linearGradient>
    <linearGradient id="micGrad" x1="0%" y1="0%" x2="0%" y2="100%">
      <stop offset="0%" style="stop-color:#80DEEA"/>
      <stop offset="100%" style="stop-color:#00ACC1"/>
    </linearGradient>
    <filter id="glow" x="-30%" y="-30%" width="160%" height="160%">
      <feGaussianBlur stdDeviation="18" result="blur"/>
      <feMerge><feMergeNode in="blur"/><feMergeNode in="SourceGraphic"/></feMerge>
    </filter>
    <filter id="shadow" x="-10%" y="-10%" width="120%" height="130%">
      <feDropShadow dx="0" dy="8" stdDeviation="12" flood-color="#000" flood-opacity="0.25"/>
    </filter>
  </defs>
  <rect width="1024" height="1024" rx="230" ry="230" fill="url(#bgGrad)"/>
  <rect width="1024" height="1024" rx="230" ry="230" fill="none" stroke="rgba(255,255,255,0.07)" stroke-width="3"/>
  <g opacity="0.10" stroke="white" stroke-width="2.5" fill="none">
    <path d="M 180 512 Q 300 350 512 340 Q 724 330 844 512"/>
    <path d="M 160 512 Q 300 310 512 300 Q 724 290 864 512"/>
    <path d="M 180 512 Q 300 674 512 684 Q 724 694 844 512"/>
    <path d="M 160 512 Q 300 714 512 724 Q 724 734 864 512"/>
  </g>
  <g filter="url(#glow)">
    <rect x="168" y="450" width="28" height="124" rx="14" fill="url(#micGrad)" opacity="0.7"/>
    <rect x="214" y="400" width="28" height="224" rx="14" fill="url(#micGrad)" opacity="0.85"/>
    <rect x="260" y="432" width="28" height="160" rx="14" fill="url(#micGrad)" opacity="0.7"/>
  </g>
  <g filter="url(#glow)">
    <rect x="736" y="450" width="28" height="124" rx="14" fill="url(#micGrad)" opacity="0.7"/>
    <rect x="782" y="400" width="28" height="224" rx="14" fill="url(#micGrad)" opacity="0.85"/>
    <rect x="828" y="432" width="28" height="160" rx="14" fill="url(#micGrad)" opacity="0.7"/>
  </g>
  <g filter="url(#shadow)">
    <rect x="432" y="230" width="160" height="270" rx="80" fill="white"/>
    <rect x="452" y="250" width="120" height="230" rx="60" fill="url(#micGrad)" opacity="0.9"/>
    <line x1="477" y1="310" x2="547" y2="310" stroke="white" stroke-width="5" stroke-linecap="round" opacity="0.5"/>
    <line x1="469" y1="338" x2="555" y2="338" stroke="white" stroke-width="5" stroke-linecap="round" opacity="0.5"/>
    <line x1="466" y1="366" x2="558" y2="366" stroke="white" stroke-width="5" stroke-linecap="round" opacity="0.5"/>
    <line x1="469" y1="394" x2="555" y2="394" stroke="white" stroke-width="5" stroke-linecap="round" opacity="0.5"/>
    <line x1="474" y1="422" x2="550" y2="422" stroke="white" stroke-width="5" stroke-linecap="round" opacity="0.4"/>
    <path d="M 360 490 Q 360 650 512 650 Q 664 650 664 490" stroke="white" stroke-width="28" fill="none" stroke-linecap="round"/>
    <line x1="512" y1="650" x2="512" y2="740" stroke="white" stroke-width="28" stroke-linecap="round"/>
    <line x1="400" y1="740" x2="624" y2="740" stroke="white" stroke-width="28" stroke-linecap="round"/>
  </g>
  <circle cx="596" cy="284" r="28" fill="#00E5FF" filter="url(#glow)"/>
  <circle cx="596" cy="284" r="16" fill="white"/>
</svg>
